<svg xmlns="http://www.w3.org/2000/svg" id="categories" viewBox="0 0 500 500"><defs><linearGradient id="linear-gradient" x2="1" y1=".5" y2=".5" gradientUnits="objectBoundingBox"><stop offset="0" stop-color="#5129f5"/><stop offset="1" stop-color="#e14647"/></linearGradient></defs><circle id="circle" cx="250" cy="250" r="250" fill="url(#linear-gradient)"/><path id="folder" fill="#fff" d="M303.5 100.3h-36.4V65.5a14 14 0 00-14-14H132.5a14.4 14.4 0 01-11.6-6l-16.3-24.1a14.3 14.3 0 00-11.3-6H16.4a14 14 0 00-13.9 14v201.8a14 14 0 0014 14h241.3a14 14 0 0013-8.7l45.7-117a14 14 0 00-13-19.2zM90 35.6l14.3 21.2a34.3 34.3 0 0028.5 15h114.4v28.5H68.5a14 14 0 00-13 8.6l-32.8 84.2V35.6zm163.5 189H32.3l40.8-104.1h221.2z" transform="translate(108 119.6)"/></svg>
